<svg xmlns="http://www.w3.org/2000/svg" xmlns:xlink="http://www.w3.org/1999/xlink" width="289.316" height="455.245" viewBox="0 0 289.316 455.245">
  <defs>
    <linearGradient id="linear-gradient" x1="0.5" x2="0.5" y2="1" gradientUnits="objectBoundingBox">
      <stop offset="0" stop-color="#e994bd"/>
      <stop offset="1" stop-color="#fff"/>
    </linearGradient>
    <linearGradient id="linear-gradient-3" x1="0.5" x2="0.5" y2="1" gradientUnits="objectBoundingBox">
      <stop offset="0" stop-color="#ffff0d"/>
      <stop offset="1" stop-color="#ffc909"/>
    </linearGradient>
    <linearGradient id="linear-gradient-4" x1="1.056" y1="0.857" xlink:href="#linear-gradient"/>
    <linearGradient id="linear-gradient-6" x1="0.5" x2="0.5" y2="1" gradientUnits="objectBoundingBox">
      <stop offset="0" stop-color="#ff5858"/>
      <stop offset="1" stop-color="#f857a6"/>
    </linearGradient>
  </defs>
  <g id="Groupe_107" data-name="Groupe 107" transform="translate(-931.819 -2046)">
    <g id="Head" transform="translate(1044.744 2085.091)">
      <path id="Head-2" data-name="Head" d="M0,0,8.833,39.615C3.907,45.179.573,52,1.13,59.638,2.735,81.653,34.582,76.81,40.776,65.7s5.459-39.3-2.547-41.281c-3.193-.792-9.995,1.148-16.918,5.163L25.657,0Z" transform="translate(44.9 75.095) rotate(180)" fill="url(#linear-gradient)"/>
    </g>
    <path id="hair" d="M15.3,37.08c3.381-.555,12.486-.936,14.165-.936,1.073,0,2.236.245,2.871-.74.52-.807.33-2.171.485-3.108.18-1.088.437-2.161.7-3.232A32.864,32.864,0,0,1,36.933,20.4,26.645,26.645,0,0,1,49.563,8.962C55.541,6.391,62.306,5.8,68.737,6.324c6.882.558,13.111,2.83,19.609,4.967A41.1,41.1,0,0,0,107.5,13.136c6.525-1,11.455-4.539,16.958-7.9C130.092,1.8,136.53-.443,143.191.074c6.217.482,11.948,3.05,17.089,6.479,4.81,3.209,8.779,7.069,11.02,12.5,2.411,5.844,2.408,12.259-1.556,17.425-5.746,7.487-16.412,9.423-25.287,9.23a48.313,48.313,0,0,1-15.02-2.752c-6.463-2.273-12.048-6.126-18.094-9.252a47.085,47.085,0,0,0-8.845-3.54c-2.983-.843-5.922-1.229-8.623.573-2.857,1.907-5.418,3.779-8.687,4.973a28.015,28.015,0,0,1-9.8,1.76c-6.5-.05-12.908-2.076-19.222-3.432-5.148-1.106-10.657-2.209-15.906-1.145-2.19.444-5.389,1.36-6.181,3.636C47.4,38.942,52.624,55.409,48.871,67.5c-2.026,6.524-14.2,14.151-18.938,10.721-3-2.173-1.179-5.026,0-6.909,2.257-3.606,3.029-8.239-1.147-10.749-3.6-2.165-7.39,2.977-7.462,2.971-.99-.078-9.545-4.916-15.44-11.977C.07,51.9-.813,48.064.576,44.928S10.631,37.847,15.3,37.08Z" transform="translate(1048.187 2046)" fill="#312704"/>
    <path id="Leg" d="M104.928,192.429C85.3,176.33,95.468,31.857,94.17,30.064,93.305,28.869-.2,11.171-.2,11.171L2.7-.049S112.387,3.475,118.637,11.615c8.949,11.655,20.271,131.815,20.271,131.815Z" transform="matrix(-0.574, -0.819, 0.819, -0.574, 1016.264, 2450.594)" fill="url(#linear-gradient)"/>
    <path id="Pant" d="M-.363,20.244,4.717,2.166C59.388-5.174,95.214,2.029,107.654,14S127.99,145.455,127.99,145.455l-36.342,51.9C44.863,161.958,75.269,42.74,74.105,40.046S44.208,35.727-.363,20.244Z" transform="matrix(-0.574, -0.819, 0.819, -0.574, 1005.881, 2442.605)" fill="url(#linear-gradient-3)"/>
    <path id="shoe" d="M4.968,16.559a2.193,2.193,0,0,1-2.748-1.427L.1,8.158A63.994,63.994,0,0,1,.959.012l60.03.731s2.434,7.54-2.6,8.077-8.362.979-8.362.979L22.277,21.537a1.1,1.1,0,0,1-1.424-.567l-1.846-4.246s-4.694-2.171-7.611-2.207Z" transform="translate(1036.547 2455.878) rotate(160)" fill="#e8f5f9"/>
    <path id="Leg-2" data-name="Leg" d="M43.482,0,98.8,127.792,153.17,235.83H140.342L0,0Z" transform="translate(1055.949 2254.27)" fill="url(#linear-gradient-4)"/>
    <path id="shoe-2" data-name="shoe" d="M57.022,5.422a2.134,2.134,0,0,1,2.742,1.46l2.04,7.28a70.4,70.4,0,0,1-.963,8.547H.545s-2.35-7.869,2.713-8.5,8.413-1.133,8.413-1.133L39.7.426A1.064,1.064,0,0,1,41.12,1l1.8,4.426s4.688,2.215,7.619,2.215Z" transform="translate(1149.876 2478.536)" fill="#e8f5f9"/>
    <path id="Pant-2" data-name="Pant" d="M152.885,213.386l-28.5,5.144C102.344,187.352,10.112,59.512,0,0H63.454C97.224,43.021,131.878,181.693,152.885,213.386Z" transform="translate(1051.323 2254.27)" fill="url(#linear-gradient-3)"/>
    <path id="Skin" d="M267.926,123.154a91.4,91.4,0,0,1-19.658-14.837L209.532,91.949,221.9,76.7l29.012,21.4q21.735,3.842,20.161,6.6c-1.576,2.759-5.562.887-6.938,2.583s2.02,6.938,5.465,11.779c2.489,3.5,1.493,4.377.036,4.377A6.146,6.146,0,0,1,267.926,123.154ZM26.354,25.493c-2.1-2.652-15.019-9.484-23.767-13.132C-.924,10.9-.171,8.042.86,7.128,9.236-.3,16.853,5.207,25.835,7.354c5.033,1.2,6.69-1.156,8.148-3.515,1.393-2.253,2.6-4.505,6.4-3.654-1.24,5.147-3.6,16.2,0,21.534,1.6,2.371,12.415,22.031,34.445,61.538L52.926,87.439Q30.64,30.919,26.354,25.493Z" transform="translate(1211.714 2318.049) rotate(180)" fill="#fcd7e9"/>
    <path id="Coat_Back" data-name="Coat Back" d="M.346,101.666l9.076,2.326c21.7-16.968,33.817-61.233,47.7-66.018,13.131-4.524,30.57,2.491,51.221,11.71L116.1,36.233C98.51,14.4,58.778-6.227,41.22,2.026,13.147,15.222,2.127,70.16.346,101.666Z" transform="matrix(-0.996, 0.087, -0.087, -0.996, 1086.546, 2252.99)" fill="url(#linear-gradient-6)"/>
    <path id="Shirt" d="M84.721,117.272H2.927c-3.738,0-3.033-5.193-2.493-7.814C6.67,79.214,31.011,46.612,31.011,3.56L54.6,0C74.119,30.2,80.867,67.385,84.721,117.272Z" transform="translate(1032.917 2146.256)" fill="#fff"/>
    <path id="Coat_Front" data-name="Coat Front" d="M0,3.231q16.565,98.861,95.944,145.93h9.341S137.056,44.948,122.8,10.287H49.176c1.165,16.909,4.9,34.789,10.016,52.224Q34.18,19.1,17.144,0Z" transform="translate(1184.988 2295.418) rotate(180)" fill="url(#linear-gradient-6)"/>
  </g>
</svg>
