<svg xmlns="http://www.w3.org/2000/svg" width="87.557" height="87.557" viewBox="0 0 87.557 87.557">
  <g id="Groupe_1438" data-name="Groupe 1438" transform="translate(-376.065 -58.98)">
    <g id="Groupe_1240" data-name="Groupe 1240" transform="translate(393.036 81.742)">
      <path id="Tracé_3459" data-name="Tracé 3459" d="M426.551,118.163H417.81v-2.675a5.247,5.247,0,0,0-.335-2.386,1.23,1.23,0,0,0-1.115-.513,1.419,1.419,0,0,0-1.283.694,4.029,4.029,0,0,0-.435,2.1,5.985,5.985,0,0,0,.489,2.731,7.075,7.075,0,0,0,2.661,2.212q6.292,3.728,7.926,6.118t1.634,7.712a13.517,13.517,0,0,1-.906,5.7,7.1,7.1,0,0,1-3.5,3.074,13.879,13.879,0,0,1-6.043,1.241,13.528,13.528,0,0,1-6.456-1.431,7.016,7.016,0,0,1-3.5-3.643,18.64,18.64,0,0,1-.828-6.281V130.45h8.741v4.4a5.774,5.774,0,0,0,.37,2.615,1.435,1.435,0,0,0,1.314.581,1.54,1.54,0,0,0,1.4-.738,4.2,4.2,0,0,0,.46-2.192q0-3.2-.871-4.183a27.667,27.667,0,0,0-4.411-3.284,43.139,43.139,0,0,1-4.66-3.372,7.894,7.894,0,0,1-1.891-2.906,12.762,12.762,0,0,1-.75-4.739,13.135,13.135,0,0,1,1.062-6.079,7.144,7.144,0,0,1,3.433-3.007,13.707,13.707,0,0,1,5.726-1.084,14.948,14.948,0,0,1,6.251,1.183,6.545,6.545,0,0,1,3.422,2.98,15.767,15.767,0,0,1,.838,6.106Z" transform="translate(-405.818 -102.142)" fill="#120c0c"/>
      <path id="Tracé_3460" data-name="Tracé 3460" d="M454.615,98.886v3.248a12.337,12.337,0,0,1-.6,4.179,6.075,6.075,0,0,1-2.084,2.778,8.337,8.337,0,0,1-3.353,1.534v-2.618a2.708,2.708,0,0,0,1.52-2.027h-1.52V98.886Z" transform="translate(-424.187 -98.886)"/>
      <path id="Tracé_3461" data-name="Tracé 3461" d="M483.434,128.417q0,5.454-.256,7.723a8.651,8.651,0,0,1-5.259,7.03,13.293,13.293,0,0,1-5.358,1.006,13.607,13.607,0,0,1-5.213-.95,8.7,8.7,0,0,1-5.391-6.985,76.331,76.331,0,0,1-.268-7.823v-6.192q0-5.453.256-7.722a8.646,8.646,0,0,1,5.258-7.03,13.282,13.282,0,0,1,5.359-1.006,13.606,13.606,0,0,1,5.213.95,8.7,8.7,0,0,1,5.393,6.985,76.715,76.715,0,0,1,.268,7.823Zm-9.416-11.893a11.389,11.389,0,0,0-.275-3.23,1.1,1.1,0,0,0-1.137-.7,1.266,1.266,0,0,0-1.115.57,8.181,8.181,0,0,0-.386,3.364v16.9a16.862,16.862,0,0,0,.253,3.89,1.106,1.106,0,0,0,1.182.738,1.144,1.144,0,0,0,1.213-.849,18.1,18.1,0,0,0,.265-4.046Z" transform="translate(-429.82 -102.143)"/>
    </g>
    <path id="Tracé_3462" data-name="Tracé 3462" d="M419.843,58.98a43.778,43.778,0,1,0,43.778,43.778A43.778,43.778,0,0,0,419.843,58.98Zm26.214,69.993A36.947,36.947,0,1,1,454,117.188,36.959,36.959,0,0,1,446.058,128.973Z"/>
  </g>
</svg>
