<svg xmlns="http://www.w3.org/2000/svg" xmlns:xlink="http://www.w3.org/1999/xlink" width="1366.999" height="1081.545" viewBox="0 0 1366.999 1081.545">
  <defs>
    <linearGradient id="linear-gradient" x1="0.5" x2="0.5" y2="1" gradientUnits="objectBoundingBox">
      <stop offset="0" stop-color="#ffc909"/>
      <stop offset="1" stop-color="#ffff0d"/>
    </linearGradient>
  </defs>
  <g id="Groupe_1859" data-name="Groupe 1859" transform="translate(0.5 -2964.202)">
    <path id="Soustraction_11" data-name="Soustraction 11" d="M1676.5,1312.747h0c-26.18-.431-52.273-1.967-77.553-4.565a785.251,785.251,0,0,1-87.729-13.927c-15.554-3.415-30.879-7.34-45.548-11.666-15.643-4.613-30.963-9.807-45.533-15.437-15.45-5.97-30.478-12.593-44.666-19.684a456.176,456.176,0,0,1-42.945-24.408c-12.3-7.927-24.9-15.322-37.448-21.98-12.073-6.408-24.453-12.323-36.794-17.581-11.829-5.04-23.981-9.627-36.118-13.635-11.575-3.822-23.492-7.234-35.418-10.14-11.3-2.755-22.977-5.143-34.7-7.1-11.012-1.838-22.434-3.355-33.95-4.51a652.548,652.548,0,0,0-65.57-3.065c-30.048,0-59.872,1.679-83.836,3.028h-.009l-3.231.182h-.012c-25.954,1.464-50.469,2.847-74.141,2.847-13.23,0-25.038-.433-36.1-1.323a225.9,225.9,0,0,1-23.125-3.081c-7.323-1.363-14.786-3.13-22.184-5.25a282.877,282.877,0,0,1-31.619-11.209c-9.765-4.093-19.8-8.839-30.673-14.509-20.286-10.578-40.165-22.632-61.212-35.393-3.289-1.994-6.69-4.056-10.1-6.115-13.326-8.052-27.751-16.665-42.94-25.1-16.519-9.175-31.8-16.94-46.709-23.74a494.054,494.054,0,0,0-52.009-20.374c-9.389-3.067-18.968-5.859-28.471-8.3-9.973-2.56-20.191-4.817-30.37-6.706-81.413-15.115-125.587-15.3-157.841-15.433h-.12c-2.9-.012-5.639-.024-8.337-.045V247.221c11.853-.467,23.982-.7,36.051-.7,26.517,0,53.069,1.132,78.917,3.365a805.612,805.612,0,0,1,91.565,13.092c16.4,3.352,32.555,7.254,48.012,11.6,16.561,4.656,32.763,9.944,48.156,15.718,16.388,6.147,32.3,13.01,47.3,20.4a457.772,457.772,0,0,1,45.429,25.642c12.3,7.927,24.9,15.322,37.448,21.98,12.073,6.408,24.452,12.323,36.794,17.581,11.831,5.04,23.982,9.627,36.117,13.634,11.576,3.822,23.492,7.234,35.418,10.14,11.3,2.755,22.978,5.143,34.7,7.1,11.012,1.838,22.434,3.355,33.95,4.51a652.579,652.579,0,0,0,65.57,3.065c30.055,0,59.88-1.679,83.845-3.029l3.243-.183c25.953-1.464,50.466-2.846,74.136-2.846,13.234,0,25.044.433,36.1,1.324a225.949,225.949,0,0,1,22.942,3.047c7.268,1.347,14.675,3.091,22.014,5.184a296.791,296.791,0,0,1,42.05,15.725c27.424,12.513,53.851,28.536,81.829,45.5l.129.078c3.25,1.97,6.611,4.008,9.946,6.023,13.325,8.051,27.749,16.665,42.939,25.1,16.517,9.174,31.8,16.94,46.709,23.74a494.011,494.011,0,0,0,52.009,20.374c9.388,3.067,18.967,5.859,28.47,8.3,9.973,2.56,20.191,4.817,30.37,6.706,23.428,4.35,45.62,7.789,65.958,10.224,17.051,2.041,33.042,3.427,48.888,4.236v728.9Z" transform="translate(-310 2733)" opacity="0.5" fill="url(#linear-gradient)"/>
    <path id="Soustraction_13" data-name="Soustraction 13" d="M1645.1,1359.394c-26.827,0-53.514-1.061-79.319-3.155a847.147,847.147,0,0,1-87.737-11.633c-15.429-2.9-30.672-6.272-45.307-10.012-15.52-3.967-30.778-8.458-45.349-13.351-15.377-5.162-30.417-10.914-44.7-17.1-15.011-6.495-29.6-13.643-43.37-21.247-12.005-6.63-24.244-12.839-36.376-18.454-11.73-5.429-23.707-10.464-35.6-14.964-11.462-4.337-23.179-8.3-34.825-11.791-11.189-3.349-22.647-6.356-34.056-8.935-10.911-2.467-22.112-4.619-33.292-6.4-10.624-1.69-21.569-3.1-32.531-4.177-20.192-1.992-40.734-2.96-62.8-2.96-18.42,0-37.96.689-59.736,2.108-19.455,1.267-38.727,2.985-56.8,4.637l-5.47.5-.295.027h-.005c-34.88,3.2-67.825,6.217-99.181,6.217-5.8,0-11.473-.106-16.868-.315-8.141-.316-16.408-1.046-24.571-2.171-7.808-1.076-15.791-2.55-23.728-4.382a316.766,316.766,0,0,1-34.072-9.98c-10.567-3.715-21.459-8.073-33.3-13.325-22.092-9.8-43.854-21.089-66.894-33.044l-.379-.2c-3.49-1.81-7.1-3.683-10.676-5.532-14.583-7.54-30.364-15.6-46.945-23.455-18.025-8.539-34.649-15.716-50.822-21.94a552.654,552.654,0,0,0-56.177-18.357c-10.1-2.7-20.383-5.121-30.558-7.188-10.682-2.171-21.6-4.027-32.45-5.517-25.442-3.494-49.467-6.092-71.409-7.722v-730c22.392,1.772,44.495,4.353,65.7,7.671,23.479,3.674,46.423,8.34,68.2,13.87A625.55,625.55,0,0,1,511.716,388.6c11.43,4.352,22.691,9.07,33.47,14.023,11.182,5.139,22.155,10.673,32.613,16.449,12,6.628,24.24,12.837,36.376,18.454,11.734,5.431,23.711,10.465,35.6,14.963,11.461,4.337,23.178,8.3,34.825,11.791,11.188,3.349,22.646,6.356,34.056,8.935,10.911,2.467,22.112,4.619,33.292,6.4,10.628,1.69,21.573,3.1,32.531,4.177,20.192,1.992,40.734,2.96,62.8,2.96,18.419,0,37.959-.689,59.737-2.107,19.463-1.268,38.732-2.986,56.8-4.637l4.442-.407,1.338-.122c34.876-3.2,67.815-6.215,99.164-6.215,5.8,0,11.476.106,16.876.315,8.078.313,16.28,1.034,24.376,2.143,7.749,1.062,15.671,2.516,23.544,4.322a332.214,332.214,0,0,1,45.369,14.093c29.744,11.454,58.674,26.465,89.3,42.357,3.4,1.763,7.25,3.761,11.028,5.715,14.59,7.543,30.375,15.6,46.944,23.454,18.028,8.541,34.652,15.718,50.823,21.94a552.692,552.692,0,0,0,56.177,18.357c10.1,2.7,20.38,5.12,30.558,7.188,10.678,2.17,21.6,4.026,32.45,5.516,27.485,3.774,52.262,6.4,75.747,8.033,18.85,1.309,36.615,1.946,54.309,1.946,12.959,0,23.984-.331,34.166-.669l3.113-.1c4.532-.153,8.813-.3,12.96-.4v731.453C1666.06,1359.233,1655.5,1359.394,1645.1,1359.394Z" transform="translate(-310 2642)" opacity="0.5" fill="url(#linear-gradient)"/>
    <path id="Soustraction_12" data-name="Soustraction 12" d="M1670.222,1323.19c-54.079,0-105.708-4.763-153.451-14.159-13.978-2.751-27.793-5.94-41.06-9.481-14.016-3.74-27.805-7.974-40.984-12.585-13.865-4.851-27.433-10.252-40.33-16.053-13.521-6.082-26.676-12.772-39.1-19.884-10.9-6.238-22.01-12.086-33.033-17.383-10.672-5.127-21.568-9.886-32.386-14.144-10.445-4.111-21.124-7.875-31.74-11.189-10.213-3.188-20.674-6.054-31.094-8.518-37.1-8.776-75.68-13.041-117.929-13.041-18.709,0-38.533.829-60.6,2.535-19.808,1.531-39.26,3.595-57.486,5.578l-6.216.678c-35.038,3.824-68.133,7.435-99.434,7.435-3.6,0-7.156-.049-10.58-.144a225.954,225.954,0,0,1-23.254-1.867c-7.387-.979-14.933-2.352-22.428-4.082a282.849,282.849,0,0,1-32.162-9.538c-9.965-3.575-20.233-7.79-31.39-12.884-20.81-9.5-41.293-20.5-62.978-32.14-3.708-1.99-7.05-3.784-10.406-5.579-13.729-7.343-28.586-15.19-44.195-22.82-16.976-8.3-32.64-15.252-47.887-21.263a493.972,493.972,0,0,0-53-17.624c-9.536-2.572-19.248-4.859-28.866-6.8-10.091-2.035-20.413-3.753-30.679-5.108-23.4-3.088-45.539-5.348-65.808-6.718-17.049-1.152-33-1.712-48.761-1.712-15.645,0-28.712.558-39.733,1.081l-3.137.15-.976.047c-6.923.334-13.462.65-19.634.8V328c19.2-1.194,38.618-1.8,57.727-1.8,54.08,0,105.709,4.764,153.452,14.159,13.979,2.751,27.794,5.941,41.06,9.481,14.02,3.741,27.809,7.975,40.984,12.585,13.866,4.851,27.435,10.252,40.33,16.053,13.521,6.082,26.675,12.772,39.1,19.884,10.9,6.237,22.009,12.086,33.032,17.382,10.671,5.127,21.567,9.886,32.385,14.144,10.444,4.111,21.123,7.875,31.739,11.189,10.216,3.189,20.677,6.055,31.093,8.518,37.1,8.775,75.679,13.041,117.928,13.041,18.709,0,38.533-.829,60.605-2.536,19.816-1.532,39.265-3.6,57.487-5.578l6.22-.678c35.036-3.823,68.128-7.435,99.426-7.435,3.591,0,7.153.049,10.586.145a225.9,225.9,0,0,1,23.069,1.842c7.329.965,14.817,2.319,22.255,4.024a296.786,296.786,0,0,1,42.815,13.5c28.039,11.06,55.268,25.678,84.1,41.154,3.2,1.716,6.815,3.659,10.384,5.568,13.728,7.343,28.584,15.19,44.194,22.82,16.977,8.3,32.641,15.253,47.887,21.263a493.956,493.956,0,0,0,53,17.625c9.535,2.571,19.247,4.859,28.866,6.8,10.091,2.034,20.413,3.753,30.679,5.108,23.4,3.088,45.543,5.348,65.809,6.717,17.046,1.152,33,1.712,48.762,1.712,3.97,0,8.017-.036,12.027-.108v728.588C1674.412,1323.183,1672.3,1323.19,1670.222,1323.19Z" transform="translate(-310 2638)" opacity="0.5" fill="url(#linear-gradient)"/>
  </g>
</svg>
