<svg xmlns="http://www.w3.org/2000/svg" xmlns:xlink="http://www.w3.org/1999/xlink" width="1466.237" height="912.983" viewBox="0 0 1466.237 912.983">
  <defs>
    <linearGradient id="linear-gradient" x1="0.5" x2="0.5" y2="1" gradientUnits="objectBoundingBox">
      <stop offset="0" stop-color="#ffc909"/>
      <stop offset="1" stop-color="#ffff0d"/>
    </linearGradient>
  </defs>
  <g id="Groupe_1534" data-name="Groupe 1534" transform="translate(651.988 -3091.508)">
    <path id="Union_72" data-name="Union 72" d="M456.448,560.69c-44.768-12.114-93.984-24.228-154.671-18.4-126.116,12.1-121.611,37.524-186.171,25.42S0,577.391,0,577.391V69.2H24.736c50.217-18.147,184.995-58.639,305.745-22.2C482.4,92.834,583.5,21.366,673.585,3.209c46.734-9.42,89.832,3.64,138.1,16.7,44.768,12.114,93.984,24.228,154.671,18.4,126.116-12.1,121.611-37.524,186.171-25.42S1268.13,3.209,1268.13,3.209V511.4h-24.736c-50.217,18.147-184.994,58.639-305.745,22.2-151.914-45.84-253.022,25.628-343.1,43.785a165.371,165.371,0,0,1-32.84,3.209C527.02,580.6,493.239,570.646,456.448,560.69Z" transform="translate(-427.781 3091.508) rotate(13)" opacity="0.5" fill="url(#linear-gradient)"/>
    <path id="Union_75" data-name="Union 75" d="M456.448,560.69c-44.768-12.114-93.984-24.228-154.671-18.4-126.116,12.1-121.611,37.524-186.171,25.42S0,577.391,0,577.391V69.2H24.736c50.217-18.147,184.995-58.639,305.745-22.2C482.4,92.834,583.5,21.366,673.585,3.209c46.734-9.42,89.832,3.64,138.1,16.7,44.768,12.114,93.984,24.228,154.671,18.4,126.116-12.1,121.611-37.524,186.171-25.42S1268.13,3.209,1268.13,3.209V511.4h-24.735c-50.217,18.147-184.994,58.639-305.745,22.2-151.914-45.84-253.022,25.628-343.1,43.785a165.376,165.376,0,0,1-32.84,3.209C527.02,580.6,493.239,570.646,456.448,560.69Z" transform="translate(-404.756 3096.838) rotate(16)" opacity="0.5" fill="url(#linear-gradient)"/>
    <path id="Union_78" data-name="Union 78" d="M483.177,560.69c-47.39-12.114-99.487-24.228-163.728-18.4-133.5,12.1-128.733,37.524-197.073,25.42S0,577.391,0,577.391V69.2H26.184c53.158-18.147,195.828-58.639,323.649-22.2,160.81,45.84,267.839-25.628,363.2-43.785,49.471-9.42,95.092,3.64,146.184,16.7,47.39,12.114,99.487,24.228,163.729,18.4,133.5-12.1,128.733-37.524,197.073-25.42S1342.39,3.209,1342.39,3.209V511.4h-26.184c-53.158,18.147-195.827,58.639-323.649,22.2-160.81-45.84-267.839,25.628-363.2,43.785A184.977,184.977,0,0,1,594.6,580.6C557.881,580.6,522.123,570.646,483.177,560.69Z" transform="translate(-521.382 3101.985) rotate(13)" opacity="0.5" fill="url(#linear-gradient)"/>
  </g>
</svg>
