<svg xmlns="http://www.w3.org/2000/svg" xmlns:xlink="http://www.w3.org/1999/xlink" width="1368.001" height="858.951" viewBox="0 0 1368.001 858.951">
  <defs>
    <linearGradient id="linear-gradient" x1="0.72" y1="1.046" x2="0.783" y2="0.258" gradientUnits="objectBoundingBox">
      <stop offset="0" stop-color="#ffc909"/>
      <stop offset="1" stop-color="#ffff0d"/>
    </linearGradient>
    <linearGradient id="linear-gradient-2" x1="0.507" y1="1" x2="0.508" y2="0.226" xlink:href="#linear-gradient"/>
    <linearGradient id="linear-gradient-3" x1="0.507" y1="1" x2="0.509" y2="0.162" xlink:href="#linear-gradient"/>
  </defs>
  <g id="Groupe_1673" data-name="Groupe 1673" transform="translate(1.501 -1891.551)">
    <path id="Soustraction_8" data-name="Soustraction 8" d="M1367,855.951H0V.011C1.328,0,2.591,0,3.754,0,57.088,0,107.3,5.923,153,17.6c13.258,3.389,26.3,7.314,38.77,11.666,13.142,4.588,26,9.775,38.231,15.419a391.529,391.529,0,0,1,37.132,19.6,365.669,365.669,0,0,1,35.471,24.2c9.878,7.636,20.018,14.8,30.138,21.3,9.81,6.3,19.885,12.148,29.943,17.388,9.727,5.067,19.724,9.712,29.713,13.806,9.629,3.946,19.537,7.5,29.449,10.554,35.592,10.978,73.029,16.315,114.451,16.315a607.864,607.864,0,0,0,65.91-3.892c21.717-2.36,42.962-5.524,62.862-8.562l7.022-1.075.156-.024c38.117-5.839,74.116-11.354,107.444-11.354,1.887,0,3.776.018,5.614.053a175.446,175.446,0,0,1,23.424,2.033,182.934,182.934,0,0,1,22.278,4.923,215.381,215.381,0,0,1,31.435,11.84,314.166,314.166,0,0,1,30.187,16.193c19.88,11.981,39.221,25.908,59.7,40.652l.107.077c3.179,2.289,6.466,4.656,9.729,7,12.966,9.3,27.01,19.232,41.857,28.875a518.92,518.92,0,0,0,45.833,26.793c8.316,4.268,16.711,8.227,24.95,11.764,8.792,3.775,17.74,7.214,26.6,10.222,9.357,3.178,18.932,5.984,28.459,8.339,10,2.472,20.274,4.53,30.539,6.116,39.613,6.12,74.545,9.1,106.794,9.1,19.473,0,35.007-1.053,48.04-2.04,1.866-.141,3.68-.281,5.53-.425h.013c11.193-.866,20.859-1.613,30.184-1.613a133.78,133.78,0,0,1,16.045.895V855.95Z" transform="translate(-1.5 1891.55)" opacity="0.5" fill="url(#linear-gradient)"/>
    <path id="Soustraction_9" data-name="Soustraction 9" d="M1367,808.363H3.147L0,807.637V1.833C17.45.616,34.891,0,51.839,0a658.829,658.829,0,0,1,69.579,3.6A552.744,552.744,0,0,1,193.8,16.1c12.358,3.022,24.567,6.514,36.29,10.379,12.255,4.041,24.318,8.6,35.852,13.557,12.027,5.166,23.814,10.9,35.035,17.052a386.6,386.6,0,0,1,33.838,20.864c9.747,6.734,19.709,13.067,29.609,18.824,9.629,5.6,19.477,10.814,29.269,15.5,9.507,4.548,19.235,8.729,28.915,12.424,9.377,3.58,18.982,6.811,28.549,9.6,9.24,2.7,18.718,5.062,28.17,7.031,9.1,1.9,18.445,3.481,27.778,4.711,8.949,1.18,18.158,2.068,27.372,2.642,8.791.548,17.86.825,26.954.825,14.222,0,28.576-.646,43.88-1.974,13.56-1.177,27.5-2.862,42.628-5.151,27.989-4.236,55.07-9.812,81.26-15.2,42.132-8.675,81.928-16.868,118.836-18.056,1.991-.064,4.005-.1,5.987-.1a186.437,186.437,0,0,1,21.752,1.281,195.264,195.264,0,0,1,20.954,3.659,228.843,228.843,0,0,1,33.891,10.766,333.7,333.7,0,0,1,32.817,15.421c21.684,11.542,42.909,25.164,65.379,39.587,3.844,2.467,7.306,4.689,10.787,6.913,14.228,9.093,29.631,18.8,45.861,28.147a550.957,550.957,0,0,0,49.946,25.736c9.029,4.045,18.124,7.758,27.031,11.037,9.506,3.5,19.157,6.636,28.684,9.323,10.068,2.84,20.345,5.275,30.546,7.238,10.706,2.06,21.68,3.669,32.62,4.782,15.574,1.584,30.7,2.768,44.965,3.518,12.971.682,25.652,1.028,37.69,1.028,10.195,0,20.31-.249,30.064-.739V808.362Z" transform="translate(-0.5 1942.138)" opacity="0.5" fill="url(#linear-gradient-2)"/>
    <path id="Soustraction_10" data-name="Soustraction 10" d="M1367,790.2H27.717c-9.464-.713-18.789-1.257-27.717-1.616V0C49.888.886,97.292,6.312,140.9,16.127c12.475,2.808,24.81,6.019,36.663,9.544,12.436,3.7,24.684,7.845,36.4,12.325,12.257,4.684,24.278,9.863,35.73,15.393,11.942,5.767,23.6,12.074,34.637,18.748,10.317,6.236,20.847,12.09,31.3,17.4,10.134,5.148,20.484,9.932,30.763,14.217,9.947,4.147,20.116,7.95,30.225,11.3,9.753,3.234,19.74,6.145,29.683,8.653,35.807,9.029,72.846,13.417,113.234,13.417,20.423,0,42.037-1.122,66.076-3.431,21.687-2.083,42.773-4.871,62.513-7.549l6.412-.871.868-.118c37.739-5.137,73.386-9.989,106.8-9.989,1.284,0,2.57.007,3.821.021a209.13,209.13,0,0,1,23.321,1.579,221.826,221.826,0,0,1,22.449,3.993,260.718,260.718,0,0,1,32.122,9.712c9.942,3.681,20.175,8.046,31.284,13.346,20.722,9.887,41.087,21.4,62.647,33.583,3.181,1.8,6.787,3.837,10.342,5.838,13.651,7.686,28.424,15.9,43.956,23.854,16.9,8.658,32.5,15.887,47.694,22.1a455.841,455.841,0,0,0,52.9,18.066c9.528,2.6,19.239,4.893,28.863,6.809,10.1,2.01,20.433,3.674,30.717,4.946,38.443,4.752,72.2,7.062,103.19,7.062,19.56,0,35.542-.918,49.9-1.91,2.071-.143,4.1-.287,5.9-.414h.009c11.344-.8,21.14-1.5,30.656-1.5a144.147,144.147,0,0,1,25.03,2.015V790.2Z" transform="translate(-1.5 1960.305)" opacity="0.5" fill="url(#linear-gradient-3)"/>
  </g>
</svg>
