<svg id="Logo-codes-rousseau" xmlns="http://www.w3.org/2000/svg" width="283.183" height="137.85" viewBox="0 0 283.183 137.85">
  <path id="Tracé_3465" data-name="Tracé 3465" d="M28.48,11.843c-2.137-1.5-4.564-2.831-7.221-2.831-6.7,0-11.438,4.8-11.438,11.612,0,6.876,4.448,11.843,11.438,11.843,2.657,0,5.372-1.443,7.453-2.946L27.5,40.036a19.1,19.1,0,0,1-6.932,1.444C8.492,41.48,0,33.161,0,20.854,0,9.012,8.492,0,20.509,0a15.4,15.4,0,0,1,6.47,1.272Z"/>
  <path id="Tracé_3466" data-name="Tracé 3466" d="M66.727,20.739a21.148,21.148,0,0,1-42.288,0,21.148,21.148,0,0,1,42.288,0m-32.467,0c0,6.067,5.084,11.729,11.323,11.729s11.323-5.661,11.323-11.729S51.822,9.011,45.582,9.011,34.26,14.675,34.26,20.739" transform="translate(7.677)" fill="#e6332a"/>
  <path id="Tracé_3467" data-name="Tracé 3467" d="M59.955.7H73.7C84.97.7,94.039,9.313,94.039,20.519S84.97,40.335,73.7,40.335H59.955Zm9.821,31.253h3.062a11.438,11.438,0,0,0,0-22.877H69.776Z" transform="translate(18.835 0.221)"/>
  <path id="Tracé_3468" data-name="Tracé 3468" d="M89.272,40.333V.7h22.417l1.731,8.378H99.094v6.873h10.224v8.378H99.094v7.625h15.538l-2.425,8.376Z" transform="translate(28.045 0.221)"/>
  <path id="Tracé_3469" data-name="Tracé 3469" d="M132.7,11.381c-2.254-1.963-3.986-3-7.048-3-1.733,0-4.333,1.039-4.333,3.118,0,6.3,17.733,2.195,17.733,16.753,0,8.9-6.93,13.23-15.193,13.23A21.11,21.11,0,0,1,110.107,36.8L116,29.29a9.577,9.577,0,0,0,7.453,3.178c2.021,0,5.2-.982,5.2-3.525,0-6.182-17.734-2.484-17.734-16.695C110.915,4.391,118.194,0,125.356,0a20.377,20.377,0,0,1,12.71,4.564Z" transform="translate(34.59)"/>
  <path id="Tracé_3470" data-name="Tracé 3470" d="M.615,37.371H11.764c9.244,0,16,3.234,16,12.247,0,4.1-2.368,8.551-6.412,10.052L32.042,74.748l-9.936,3.178L10.551,59.208h-.116V76.539l-9.821.924V37.371Zm9.821,19.468c4.217.289,7.51-1.1,7.51-5.777,0-4.738-3.465-5.488-7.51-5.314Z" transform="translate(0.193 11.74)"/>
  <path id="Tracé_3471" data-name="Tracé 3471" d="M66.727,57.406A21.148,21.148,0,1,1,45.582,36.667,20.959,20.959,0,0,1,66.727,57.406m-32.467,0c0,6.066,5.084,11.729,11.323,11.729S56.905,63.47,56.905,57.406,51.822,45.678,45.582,45.678,34.26,51.341,34.26,57.406" transform="translate(7.677 11.519)" fill="#f39200"/>
  <path id="Tracé_3472" data-name="Tracé 3472" d="M66.727,94.073A21.148,21.148,0,1,1,45.582,73.334,20.959,20.959,0,0,1,66.727,94.073m-32.467,0c0,6.066,5.084,11.73,11.323,11.73s11.323-5.664,11.323-11.73S51.822,82.345,45.582,82.345,34.26,88.008,34.26,94.073" transform="translate(7.677 23.038)" fill="#95c11f"/>
  <path id="Tracé_3473" data-name="Tracé 3473" d="M92.65,63.471c0,9.245-7.221,14.674-17.158,14.674-9.244,0-15.713-4.333-15.713-13.981V37.592l9.821-.924V61.392c0,4.217,1.213,7.743,6.124,7.743,6.355,0,7.106-4.45,7.106-9.881V37.592l9.821-.924Z" transform="translate(18.78 11.519)"/>
  <path id="Tracé_3474" data-name="Tracé 3474" d="M110.718,48.048c-2.252-1.965-3.986-3-7.048-3-1.733,0-4.333,1.039-4.333,3.12,0,6.3,17.736,2.195,17.736,16.754,0,8.9-6.931,13.228-15.194,13.228A21.11,21.11,0,0,1,88.13,73.467l5.891-7.512a9.574,9.574,0,0,0,7.453,3.178c2.022,0,5.2-.983,5.2-3.525,0-6.18-17.736-2.484-17.736-16.7,0-7.856,7.279-12.247,14.442-12.247a20.359,20.359,0,0,1,12.708,4.564Z" transform="translate(27.686 11.519)"/>
  <path id="Tracé_3475" data-name="Tracé 3475" d="M135.157,48.048c-2.252-1.965-3.986-3-7.048-3-1.732,0-4.333,1.039-4.333,3.12,0,6.3,17.736,2.195,17.736,16.754,0,8.9-6.932,13.228-15.2,13.228a21.109,21.109,0,0,1-13.747-4.678l5.89-7.512a9.576,9.576,0,0,0,7.453,3.178c2.022,0,5.2-.983,5.2-3.525,0-6.18-17.734-2.484-17.734-16.7,0-7.856,7.278-12.247,14.441-12.247a20.363,20.363,0,0,1,12.709,4.564Z" transform="translate(35.363 11.519)"/>
  <path id="Tracé_3476" data-name="Tracé 3476" d="M138.15,77V37.371h22.417l1.731,8.376H147.972v6.874H158.2V61H147.972v7.626H163.51L161.086,77Z" transform="translate(43.4 11.74)"/>
  <path id="Tracé_3477" data-name="Tracé 3477" d="M178.519,36.667l21.376,39.456L189.9,78.145l-4.045-8.491H170.778l-3.986,8.491-9.532-2.022L178.4,36.667Zm-5.372,25.65H183.66l-5.257-9.7Z" transform="translate(49.403 11.519)"/>
  <path id="Tracé_3478" data-name="Tracé 3478" d="M223.141,63.471c0,9.245-7.221,14.674-17.158,14.674-9.244,0-15.713-4.333-15.713-13.981V37.592l9.821-.924V61.392c0,4.217,1.214,7.743,6.124,7.743,6.355,0,7.1-4.45,7.1-9.881V37.592l9.822-.924v26.8Z" transform="translate(59.773 11.519)"/>
  <path id="Tracé_3479" data-name="Tracé 3479" d="M61.269,91.241s.791-.124,2.276-.359c1.484-.2,3.661-.565,6.433-.884,2.77-.34,6.134-.779,9.994-1.175s8.213-.813,12.964-1.209c9.5-.786,20.584-1.473,32.458-1.934,2.969-.135,5.987-.221,9.041-.306s6.15-.183,9.266-.223c6.234-.141,12.567-.162,18.9-.2,6.334.034,12.667.045,18.9.187q4.676.065,9.265.221c3.055.091,6.074.167,9.043.3,11.875.457,22.958,1.145,32.458,1.933,4.749.4,9.1.807,12.963,1.214s7.225.837,9.994,1.18c2.772.321,4.949.687,6.433.89l2.276.36s-.792.127-2.276.361c-1.484.2-3.66.57-6.433.891-2.769.342-6.136.783-9.994,1.179s-8.213.816-12.963,1.216c-9.5.786-20.583,1.474-32.458,1.933-2.969.137-5.987.21-9.043.3s-6.148.177-9.265.219c-6.234.142-12.567.152-18.9.187-6.333-.034-12.667-.054-18.9-.195-3.116-.042-6.211-.129-9.266-.223s-6.073-.172-9.041-.308c-11.875-.46-22.958-1.147-32.458-1.933-4.751-.4-9.1-.8-12.964-1.21s-7.224-.836-9.994-1.175c-2.772-.318-4.949-.685-6.433-.883l-2.276-.361" transform="translate(19.248 26.688)"/>
  <path id="Tracé_3480" data-name="Tracé 3480" d="M.582,91.683s.1-.139.3-.356a12.15,12.15,0,0,1,.84-.879c.361-.338.8-.774,1.3-1.164a18.75,18.75,0,0,1,1.693-1.2,17.6,17.6,0,0,1,4.236-1.93,17.211,17.211,0,0,1,4.856-.711,16.92,16.92,0,0,1,4.856.7A17.35,17.35,0,0,1,22.9,88.064,19,19,0,0,1,24.59,89.27c.5.393.942.829,1.3,1.171a12.009,12.009,0,0,1,.838.883c.194.218.3.359.3.359s-.1.139-.3.357c-.193.2-.477.564-.838.883-.363.34-.8.777-1.3,1.172A18.992,18.992,0,0,1,22.9,95.3a17.35,17.35,0,0,1-4.237,1.928,16.92,16.92,0,0,1-4.856.7,17.117,17.117,0,0,1-4.856-.711,17.592,17.592,0,0,1-4.236-1.929,18.75,18.75,0,0,1-1.693-1.2c-.5-.39-.942-.828-1.3-1.164-.361-.317-.647-.681-.84-.878-.193-.218-.3-.356-.3-.356" transform="translate(0.183 26.841)"/>
</svg>
