<svg xmlns="http://www.w3.org/2000/svg" width="22.555" height="18" viewBox="0 0 22.555 18">
  <g id="Icon_feather-shopping-cart" data-name="Icon feather-shopping-cart" transform="translate(-1.029 0.417)">
    <path id="Tracé_3481" data-name="Tracé 3481" d="M5.833,12.25a.583.583,0,1,1-.583-.583A.583.583,0,0,1,5.833,12.25Z" transform="translate(3.208 3.75)" fill="none" stroke="#041231" stroke-linecap="round" stroke-linejoin="round" stroke-width="2"/>
    <path id="Tracé_3482" data-name="Tracé 3482" d="M12.25,12.25a.583.583,0,1,1-.583-.583.583.583,0,0,1,.583.583Z" transform="translate(9.167 3.75)" fill="none" stroke="#041231" stroke-linecap="round" stroke-linejoin="round" stroke-width="2"/>
    <path id="Tracé_3483" data-name="Tracé 3483" d="M2.029.583H4.583l2.68,11.158a1.952,1.952,0,0,0,2,1.342h9.72a1.952,1.952,0,0,0,2-1.342l1.6-6.992h-17" transform="translate(0 0)" fill="none" stroke="#041231" stroke-linecap="round" stroke-linejoin="round" stroke-width="2"/>
  </g>
</svg>
