<svg xmlns="http://www.w3.org/2000/svg" xmlns:xlink="http://www.w3.org/1999/xlink" width="443.905" height="348.024" viewBox="0 0 443.905 348.024">
  <defs>
    <linearGradient id="linear-gradient" x1="0.5" x2="0.5" y2="1" gradientUnits="objectBoundingBox">
      <stop offset="0" stop-color="#485960"/>
      <stop offset="1" stop-color="#657884"/>
    </linearGradient>
    <linearGradient id="linear-gradient-2" x1="0.5" x2="0.169" y2="1.154" gradientUnits="objectBoundingBox">
      <stop offset="0" stop-color="#64dd28"/>
      <stop offset="1" stop-color="#326f14"/>
    </linearGradient>
    <linearGradient id="linear-gradient-3" x1="0.5" x2="0.5" y2="1" gradientUnits="objectBoundingBox">
      <stop offset="0" stop-color="#596c76"/>
      <stop offset="1" stop-color="#2d363b"/>
    </linearGradient>
    <clipPath id="clip-path">
      <path id="Soustraction_3" data-name="Soustraction 3" d="M44.341,110.581H17.1a14.737,14.737,0,0,1-6.657-1.612,17.916,17.916,0,0,1-5.436-4.262A20.123,20.123,0,0,1,0,91.664V17.123A17.361,17.361,0,0,1,4.2,5.76,17.042,17.042,0,0,1,14.6,0l.3,1.6a3.857,3.857,0,0,0,3.724,3.351H43.01a3.466,3.466,0,0,0,2.48-1.007,4.737,4.737,0,0,0,1.27-2.509l.305-1.4A17.059,17.059,0,0,1,57.311,5.841a17.36,17.36,0,0,1,4.133,11.282v76.15a17.356,17.356,0,0,1-5.01,12.238A17.038,17.038,0,0,1,51,109.22,16.824,16.824,0,0,1,44.341,110.581Z" transform="translate(0 0)" fill="#eceff1"/>
    </clipPath>
    <linearGradient id="linear-gradient-4" x1="0.5" y1="1" x2="0.5" gradientUnits="objectBoundingBox">
      <stop offset="0" stop-color="#939593"/>
      <stop offset="1" stop-color="#00ff3b"/>
    </linearGradient>
    <linearGradient id="linear-gradient-5" x1="0.5" y1="1" x2="0.5" gradientUnits="objectBoundingBox">
      <stop offset="0" stop-color="#16602a"/>
      <stop offset="1" stop-color="#00ff3b"/>
    </linearGradient>
    <linearGradient id="linear-gradient-6" x1="0.5" x2="0.5" y2="1" gradientUnits="objectBoundingBox">
      <stop offset="0"/>
      <stop offset="1" stop-color="#545454"/>
    </linearGradient>
  </defs>
  <g id="Groupe_1229" data-name="Groupe 1229" transform="translate(-37.134 -1691.618)">
    <rect id="Rectangle_2230" data-name="Rectangle 2230" width="175.348" height="219.387" rx="27" transform="translate(226.716 1726.07) rotate(45)" fill="#edf0f2"/>
    <rect id="Rectangle_2231" data-name="Rectangle 2231" width="161.755" height="196.279" rx="27" transform="translate(229.119 1733.279) rotate(45)" fill="#edf0f2"/>
    <g id="Groupe_1210" data-name="Groupe 1210" transform="translate(229.346 1714.914) rotate(45)">
      <rect id="Rectangle_17" data-name="Rectangle 17" width="151.56" height="203.075" rx="27" transform="translate(0 0)" fill="url(#linear-gradient)"/>
      <rect id="Rectangle_2216" data-name="Rectangle 2216" width="137.288" height="172.491" rx="20" transform="translate(7.476 11.554)" fill="#eceff1"/>
      <circle id="Ellipse_13" data-name="Ellipse 13" cx="6.117" cy="6.117" r="6.117" transform="translate(70.003 187.444)" fill="#38454c"/>
    </g>
    <circle id="Ellipse_17" data-name="Ellipse 17" cx="1.359" cy="1.359" r="1.359" transform="translate(278.462 1770.565) rotate(45)" fill="#38454c"/>
    <g id="Groupe_1212" data-name="Groupe 1212" transform="translate(235.21 1751.341) rotate(45)">
      <g id="Groupe_1199" data-name="Groupe 1199" transform="translate(50.973 45.598)">
        <g id="Polygone_2" data-name="Polygone 2" transform="translate(39.419 34.044) rotate(180)" fill="#fd0d1b" stroke-linecap="round" stroke-linejoin="bevel">
          <path d="M 35.95037460327148 33.04391860961914 L 3.468894720077515 33.04391860961914 C 2.947444677352905 33.04391860961914 2.689334869384766 32.69390106201172 2.602574825286865 32.54341125488281 C 2.515804767608643 32.39291000366211 2.342204809188843 31.99415969848633 2.603474855422974 31.54286956787109 L 18.84421539306641 3.490699529647827 C 19.10493469238281 3.04034948348999 19.53628540039063 2.991729497909546 19.70963478088379 2.991729497909546 C 19.88298416137695 2.991729497909546 20.31433486938477 3.04034948348999 20.57505416870117 3.490699529647827 L 36.8157958984375 31.54287910461426 C 37.07706451416016 31.99415969848633 36.90346527099609 32.39291000366211 36.81669616699219 32.54341125488281 C 36.72993469238281 32.69390106201172 36.47182464599609 33.04391860961914 35.95037460327148 33.04391860961914 Z" stroke="none"/>
          <path d="M 19.70963096618652 3.991724014282227 L 19.70963478088379 3.991720199584961 L 3.468894958496094 32.04391098022461 L 35.95037460327148 32.04391098022461 L 19.70963478088379 3.991729736328125 C 19.70963478088379 3.991727828979492 19.70963287353516 3.991725921630859 19.70963096618652 3.991724014282227 M 19.70963478088379 1.991722106933594 C 20.38247680664063 1.991722106933594 21.05531883239746 2.324363708496094 21.44048500061035 2.989650726318359 L 37.68122482299805 31.04183959960938 C 38.45315551757813 32.37517929077148 37.49103546142578 34.04391098022461 35.95037460327148 34.04391098022461 L 3.468894958496094 34.04391098022461 C 1.928226470947266 34.04391098022461 0.9661140441894531 32.37517929077148 1.738044738769531 31.04183959960938 L 17.97878456115723 2.989650726318359 C 18.36395072937012 2.324363708496094 19.03679275512695 1.991722106933594 19.70963478088379 1.991722106933594 Z" stroke="none" fill="#fff"/>
        </g>
        <g id="Polygone_3" data-name="Polygone 3" transform="translate(28.545 21.81) rotate(180)" fill="#fff" stroke-linecap="round" stroke-linejoin="round">
          <path d="M 15.72163009643555 14.07571506500244 L 1.734455466270447 14.07571506500244 L 8.728042602539063 1.995879292488098 L 15.72163009643555 14.07571506500244 Z" stroke="none"/>
          <path d="M 8.728042602539063 3.991716384887695 L 3.468893051147461 13.07570457458496 L 13.98719215393066 13.07570457458496 L 8.728042602539063 3.991716384887695 M 8.728042602539063 -4.76837158203125e-06 L 17.45608329772949 15.07570552825928 L 1.9073486328125e-06 15.07570552825928 L 8.728042602539063 -4.76837158203125e-06 Z" stroke="none" fill="#fff"/>
        </g>
      </g>
      <g id="Groupe_1201" data-name="Groupe 1201" transform="translate(0 0.68)">
        <g id="Polygone_5" data-name="Polygone 5" transform="translate(0 0)" fill="#fd0d1b" stroke-linecap="round" stroke-linejoin="bevel">
          <path d="M 35.95037460327148 33.04391860961914 L 3.468894720077515 33.04391860961914 C 2.947444677352905 33.04391860961914 2.689334869384766 32.69390106201172 2.602574825286865 32.54341125488281 C 2.515804767608643 32.39291000366211 2.342204809188843 31.99415969848633 2.603474855422974 31.54286956787109 L 18.84421539306641 3.490699529647827 C 19.10493469238281 3.04034948348999 19.53628540039063 2.991729497909546 19.70963478088379 2.991729497909546 C 19.88298416137695 2.991729497909546 20.31433486938477 3.04034948348999 20.57505416870117 3.490699529647827 L 36.8157958984375 31.54287910461426 C 37.07706451416016 31.99415969848633 36.90346527099609 32.39291000366211 36.81669616699219 32.54341125488281 C 36.72993469238281 32.69390106201172 36.47182464599609 33.04391860961914 35.95037460327148 33.04391860961914 Z" stroke="none"/>
          <path d="M 19.70963096618652 3.991724014282227 L 19.70963478088379 3.991720199584961 L 3.468894958496094 32.04391098022461 L 35.95037460327148 32.04391098022461 L 19.70963478088379 3.991729736328125 C 19.70963478088379 3.991727828979492 19.70963287353516 3.991725921630859 19.70963096618652 3.991724014282227 M 19.70963478088379 1.991722106933594 C 20.38247680664063 1.991722106933594 21.05531883239746 2.324363708496094 21.44048500061035 2.989650726318359 L 37.68122482299805 31.04183959960938 C 38.45315551757813 32.37517929077148 37.49103546142578 34.04391098022461 35.95037460327148 34.04391098022461 L 3.468894958496094 34.04391098022461 C 1.928226470947266 34.04391098022461 0.9661140441894531 32.37517929077148 1.738044738769531 31.04183959960938 L 17.97878456115723 2.989650726318359 C 18.36395072937012 2.324363708496094 19.03679275512695 1.991722106933594 19.70963478088379 1.991722106933594 Z" stroke="none" fill="#fff"/>
        </g>
        <g id="Polygone_4" data-name="Polygone 4" transform="translate(7.476 9.515)" fill="#fff" stroke-linecap="round" stroke-linejoin="round">
          <path d="M 22.01726722717285 19.51285552978516 L 1.734454274177551 19.51285552978516 L 11.87586116790771 1.995878577232361 L 22.01726722717285 19.51285552978516 Z" stroke="none"/>
          <path d="M 11.87586116790771 3.991714477539063 L 3.468891143798828 18.51284408569336 L 20.2828311920166 18.51284408569336 L 11.87586116790771 3.991714477539063 M 11.87586116790771 -5.7220458984375e-06 L 23.7517204284668 20.51284408569336 L 1.9073486328125e-06 20.51284408569336 L 11.87586116790771 -5.7220458984375e-06 Z" stroke="none" fill="#fff"/>
        </g>
        <g id="Groupe_1200" data-name="Groupe 1200" transform="translate(16.651 19.37)">
          <line id="Ligne_1" data-name="Ligne 1" y1="6.796" x2="6.796" transform="translate(0 0)" fill="none" stroke="#000" stroke-width="2"/>
          <line id="Ligne_2" data-name="Ligne 2" x1="6.796" y1="6.796" transform="translate(0 0)" fill="none" stroke="#000" stroke-width="2"/>
        </g>
      </g>
      <g id="Groupe_1202" data-name="Groupe 1202" transform="translate(2.039 44.177)">
        <g id="Rectangle_2219" data-name="Rectangle 2219" transform="translate(17.781 0) rotate(45)" fill="#fff" stroke="#000" stroke-width="2">
          <rect width="25.147" height="25.147" rx="2" stroke="none"/>
          <rect x="1" y="1" width="23.147" height="23.147" rx="1" fill="none"/>
        </g>
        <g id="Rectangle_2220" data-name="Rectangle 2220" transform="translate(17.966 7.874) rotate(45)" fill="#ffe232" stroke="#000" stroke-width="2">
          <rect width="14.272" height="14.272" stroke="none"/>
          <rect x="1" y="1" width="12.272" height="12.272" fill="none"/>
        </g>
        <rect id="Rectangle_2221" data-name="Rectangle 2221" width="24.467" height="5.437" transform="translate(7.496 24.68) rotate(-45)"/>
      </g>
      <g id="Groupe_1205" data-name="Groupe 1205" transform="translate(53.012 0)">
        <g id="Rectangle_2219-2" data-name="Rectangle 2219" transform="translate(17.781 0) rotate(45)" fill="#fff" stroke="#000" stroke-width="2">
          <rect width="25.147" height="25.147" rx="2" stroke="none"/>
          <rect x="1" y="1" width="23.147" height="23.147" rx="1" fill="none"/>
        </g>
        <g id="Rectangle_2220-2" data-name="Rectangle 2220" transform="translate(17.966 7.874) rotate(45)" fill="#ffe232" stroke="#000" stroke-width="2">
          <rect width="14.272" height="14.272" stroke="none"/>
          <rect x="1" y="1" width="12.272" height="12.272" fill="none"/>
        </g>
      </g>
    </g>
    <line id="Ligne_26" data-name="Ligne 26" x2="90.392" transform="translate(168.89 1818.142) rotate(45)" fill="none" stroke="#ccd6da" stroke-width="2"/>
    <line id="Ligne_27" data-name="Ligne 27" x2="90.392" transform="translate(165.046 1821.987) rotate(45)" fill="none" stroke="#ccd6da" stroke-width="2"/>
    <line id="Ligne_28" data-name="Ligne 28" x2="90.392" transform="translate(161.201 1825.831) rotate(45)" fill="none" stroke="#ccd6da" stroke-width="2"/>
    <line id="Ligne_29" data-name="Ligne 29" x2="90.392" transform="translate(157.356 1829.676) rotate(45)" fill="none" stroke="#ccd6da" stroke-width="2"/>
    <line id="Ligne_30" data-name="Ligne 30" x2="90.392" transform="translate(153.512 1833.521) rotate(45)" fill="none" stroke="#ccd6da" stroke-width="2"/>
    <line id="Ligne_31" data-name="Ligne 31" x2="90.392" transform="translate(141.978 1845.055) rotate(45)" fill="none" stroke="#ccd6da" stroke-width="2"/>
    <line id="Ligne_32" data-name="Ligne 32" x2="90.392" transform="translate(138.133 1848.899) rotate(45)" fill="none" stroke="#ccd6da" stroke-width="2"/>
    <line id="Ligne_33" data-name="Ligne 33" x2="59.809" transform="translate(149.667 1837.365) rotate(45)" fill="none" stroke="#ccd6da" stroke-width="2"/>
    <line id="Ligne_34" data-name="Ligne 34" x2="75.44" transform="translate(134.288 1852.744) rotate(45)" fill="none" stroke="#ccd6da" stroke-width="2"/>
    <rect id="Rectangle_2232" data-name="Rectangle 2232" width="82.237" height="121.518" rx="27" transform="translate(388.436 1812.318) rotate(45)" fill="#eceff1"/>
    <rect id="Rectangle_2233" data-name="Rectangle 2233" width="70.003" height="111.324" rx="27" transform="translate(392.761 1816.644) rotate(45)" fill="#eceff1"/>
    <g id="Tracé_3376" data-name="Tracé 3376" transform="translate(394.168 1802.018) rotate(45)" fill="#eceff1" stroke-linejoin="round">
      <path d="M 46.58753967285156 113.9882049560547 L 17.96947479248047 113.9882049560547 C 15.88077354431152 113.9882049560547 13.82844066619873 113.4914855957031 11.86947345733643 112.5118713378906 C 9.982673645019531 111.5683212280273 8.265474319458008 110.2243499755859 6.765573978424072 108.5172882080078 C 3.736990451812744 105.0703887939453 2.000007152557373 100.5734710693359 2.000007152557373 96.17960357666016 L 2.000007152557373 18.12346839904785 C 2.000007152557373 13.81351947784424 3.663257122039795 9.762402534484863 6.683373928070068 6.716402530670166 C 9.698957443237305 3.674985885620117 13.70710754394531 2.000002384185791 17.96947479248047 2.000002384185791 L 46.58753967285156 2.000002384185791 C 50.84990692138672 2.000002384185791 54.85805892944336 3.674985885620117 57.87364196777344 6.716402530670166 C 60.89375686645508 9.762402534484863 62.5570068359375 13.81351947784424 62.5570068359375 18.12346839904785 L 62.5570068359375 97.86475372314453 C 62.5570068359375 102.1747055053711 60.89375686645508 106.2257995605469 57.87364196777344 109.2718048095703 C 54.85805892944336 112.3132171630859 50.84992218017578 113.9882049560547 46.58753967285156 113.9882049560547 Z" stroke="none"/>
      <path d="M 17.9694709777832 3.999992370605469 C 14.24454498291016 3.999992370605469 10.74077987670898 5.464790344238281 8.103614807128906 8.12457275390625 C 5.457363128662109 10.79350280761719 4 14.34450531005859 4 18.12345123291016 L 4 96.17959594726563 C 4 100.0943908691406 5.555633544921875 104.1101531982422 8.268016815185547 107.1971893310547 C 9.596633911132813 108.7093200683594 11.10930633544922 109.8955917358398 12.76401519775391 110.7230682373047 C 14.44272613525391 111.5625610351563 16.19410705566406 111.9882125854492 17.9694709777832 111.9882125854492 L 46.58754348754883 111.9882125854492 C 50.31246948242188 111.9882125854492 53.81623458862305 110.5234146118164 56.45341491699219 107.8636474609375 C 59.09967041015625 105.1947174072266 60.55701446533203 101.6436996459961 60.55701446533203 97.86473846435547 L 60.55701446533203 18.12345123291016 C 60.55701446533203 14.34450531005859 59.09967041015625 10.79350280761719 56.45341491699219 8.12457275390625 C 53.81623458862305 5.464790344238281 50.31246948242188 3.999992370605469 46.58754348754883 3.999992370605469 L 17.9694709777832 3.999992370605469 M 17.9694709777832 -7.62939453125e-06 L 46.58754348754883 -7.62939453125e-06 C 56.51181793212891 -7.62939453125e-06 64.55701446533203 8.114158630371094 64.55701446533203 18.12345123291016 L 64.55701446533203 97.86473846435547 C 64.55701446533203 107.8740692138672 56.51181793212891 115.9882125854492 46.58754348754883 115.9882125854492 L 17.9694709777832 115.9882125854492 C 8.045215606689453 115.9882125854492 0 106.1889038085938 0 96.17959594726563 L 0 18.12345123291016 C 0 8.114158630371094 8.045215606689453 -7.62939453125e-06 17.9694709777832 -7.62939453125e-06 Z" stroke="none" fill="#4a5b63"/>
    </g>
    <path id="Tracé_3383" data-name="Tracé 3383" d="M16.589,0H42.7C51.75,0,59.223,6.092,59.089,16.857V53.692H.2L0,16.9C-.138,5.538,7.536,0,16.589,0Z" transform="translate(394.276 1805.819) rotate(45)" fill="#e5f5ff"/>
    <g id="Ellipse_18" data-name="Ellipse 18" transform="translate(356.795 1856.765) rotate(45)" fill="#fff" stroke="#ccd6da" stroke-width="1">
      <circle cx="6.457" cy="6.457" r="6.457" stroke="none"/>
      <circle cx="6.457" cy="6.457" r="5.957" fill="none"/>
    </g>
    <g id="Ellipse_19" data-name="Ellipse 19" transform="translate(374.576 1874.546) rotate(45)" fill="#fff" stroke="#ccd6da" stroke-width="1">
      <circle cx="6.457" cy="6.457" r="6.457" stroke="none"/>
      <circle cx="6.457" cy="6.457" r="5.957" fill="none"/>
    </g>
    <g id="Ellipse_20" data-name="Ellipse 20" transform="translate(356.795 1892.328) rotate(45)" fill="#fff" stroke="#ccd6da" stroke-width="1">
      <circle cx="6.457" cy="6.457" r="6.457" stroke="none"/>
      <circle cx="6.457" cy="6.457" r="5.957" fill="none"/>
    </g>
    <rect id="Rectangle_2234" data-name="Rectangle 2234" width="59.129" height="35.341" transform="translate(381.304 1818.799) rotate(45)" fill="url(#linear-gradient-2)"/>
    <path id="Tracé_3384" data-name="Tracé 3384" d="M0,0H36.021l12.1,35.341H0Z" transform="translate(381.261 1818.756) rotate(45)" fill="url(#linear-gradient-3)"/>
    <path id="Union_56" data-name="Union 56" d="M4.457,7.171A3.867,3.867,0,0,1,.721,3.819h0L0,0H33.488l-.8,3.654c-.388,2-1.756,3.517-3.763,3.517Z" transform="translate(404.853 1813.513) rotate(45)" fill="#4a5b63"/>
    <g id="Groupe_1197" data-name="Groupe 1197" transform="translate(408.217 1819.76) rotate(45)">
      <circle id="Ellipse_15" data-name="Ellipse 15" cx="1.359" cy="1.359" r="1.359" transform="translate(17.671 0)" fill="#38454c"/>
      <rect id="Rectangle_2218" data-name="Rectangle 2218" width="12.234" height="2.719" rx="1.359" transform="translate(0 0)" fill="#38454c"/>
    </g>
    <circle id="Ellipse_21" data-name="Ellipse 21" cx="6.457" cy="6.457" r="6.457" transform="translate(339.013 1874.546) rotate(45)" fill="#fff"/>
    <path id="Icon_awesome-check-circle" data-name="Icon awesome-check-circle" d="M12.913,6.457A6.457,6.457,0,1,1,6.457,0,6.457,6.457,0,0,1,12.913,6.457ZM5.71,9.875l4.79-4.79a.417.417,0,0,0,0-.589l-.589-.589a.417.417,0,0,0-.589,0L5.415,7.813,3.591,5.99A.417.417,0,0,0,3,5.99l-.589.589a.417.417,0,0,0,0,.589L5.121,9.875A.417.417,0,0,0,5.71,9.875Z" transform="translate(339.013 1875.027) rotate(45)" fill="#73e02e" stroke="#5bdc28" stroke-width="1"/>
    <g id="Groupe_de_masques_1" data-name="Groupe de masques 1" transform="translate(393.219 1805.022) rotate(45)" clip-path="url(#clip-path)">
      <path id="Union_62" data-name="Union 62" d="M21.5,1.079C20.359,2.194,19.958,4.1,18.825,5.225,17.579,6.459,15.8,6.444,14.178,6.65A5.833,5.833,0,0,0,9.517,9.374c-.631,1.178-.774,2.7-1.594,3.707C6.6,14.7,4.291,14.152,2.523,15.008.625,15.928-.457,18.7.186,21a7.106,7.106,0,0,0,1.665,2.827,4.494,4.494,0,0,0,1.854,2.194c1.7.92,3.914.328,5.187,2.07.788,1.078.925,2.716,1.532,3.98A5.526,5.526,0,0,0,14.9,34.994c1.555.221,3.267.2,4.464,1.53,1.089,1.205,1.474,3.255,2.568,4.452,1.257,1.375,3.079,1.263,4.7.983a42.831,42.831,0,0,0,4.2-.948c.48-.134,1.116-.237,1.749-.391V1.411c-.658-.144-1.321-.24-1.821-.365Q28.592.5,26.388.164A11.986,11.986,0,0,0,24.571,0,4.2,4.2,0,0,0,21.5,1.079Z" transform="translate(27.73 -4.862)" stroke="rgba(0,0,0,0)" stroke-width="1" fill="url(#linear-gradient-4)"/>
      <path id="Union_61" data-name="Union 61" d="M21.624,40.952c-1.078-1.222-1.458-3.314-2.531-4.545-1.18-1.352-2.868-1.336-4.4-1.562a5.439,5.439,0,0,1-4.415-2.986c-.6-1.291-.733-2.964-1.51-4.063-1.256-1.779-3.439-1.174-5.114-2.113a4.007,4.007,0,0,1-1.389-1.392A7.673,7.673,0,0,1,.184,21c-.635-2.3.432-5.071,2.3-5.99C4.23,14.152,6.5,14.7,7.81,13.08c.809-1,.949-2.529,1.572-3.706a5.737,5.737,0,0,1,4.6-2.724c1.6-.206,3.353-.19,4.581-1.424,1.117-1.123,1.512-3.031,2.635-4.147C22.484-.2,24.353-.1,26.016.164q2.171.34,4.314.883c.492.125,1.146.221,1.795.365V40.588c-.623.158-1.251.263-1.724.4a40.9,40.9,0,0,1-4.144.968,9.845,9.845,0,0,1-1.72.18A3.665,3.665,0,0,1,21.624,40.952Z" transform="translate(28.557 -3.509)" stroke="rgba(0,0,0,0)" stroke-width="1" opacity="0.5" fill="url(#linear-gradient-5)"/>
    </g>
    <rect id="Rectangle_2236" data-name="Rectangle 2236" width="4.078" height="10.195" transform="translate(389.955 1863.012) rotate(45)" fill="url(#linear-gradient-6)"/>
    <rect id="Rectangle_2235" data-name="Rectangle 2235" width="13.593" height="32.623" transform="translate(408.217 1838.022) rotate(45)" fill="url(#linear-gradient-6)"/>
    <g id="Ellipse_22" data-name="Ellipse 22" transform="translate(408.217 1841.867) rotate(45)" fill="#fff" stroke="#707070" stroke-width="1">
      <circle cx="4.078" cy="4.078" r="4.078" stroke="none"/>
      <circle cx="4.078" cy="4.078" r="3.578" fill="none"/>
    </g>
    <g id="Ellipse_23" data-name="Ellipse 23" transform="translate(401.489 1848.595) rotate(45)" fill="#ffe232" stroke="#707070" stroke-width="1">
      <circle cx="4.078" cy="4.078" r="4.078" stroke="none"/>
      <circle cx="4.078" cy="4.078" r="3.578" fill="none"/>
    </g>
    <g id="Ellipse_24" data-name="Ellipse 24" transform="translate(394.76 1855.323) rotate(45)" fill="#fff" stroke="#707070" stroke-width="1">
      <circle cx="4.078" cy="4.078" r="4.078" stroke="none"/>
      <circle cx="4.078" cy="4.078" r="3.578" fill="none"/>
    </g>
    <path id="Tracé_3382" data-name="Tracé 3382" d="M0,0Z" transform="translate(330.88 1832.88) rotate(45)" fill="#4a5b63"/>
  </g>
</svg>
